
<!-- Generator: visioncortex VTracer 0.6.4 -->
<svg version="1.1" xmlns="http://www.w3.org/2000/svg" viewBox="0 0 1024 1024" preserveAspectRatio="xMidYMid meet">
<path d="M0 0 C2.5 1.188 2.5 1.188 4.5 3.188 C5.213 5.197 5.213 5.197 5.879 7.648 C7.455 13.154 9.386 18.468 11.438 23.812 C11.772 24.702 12.107 25.591 12.451 26.508 C15.19 33.686 18.323 40.464 22.375 47 C24.483 50.439 26.405 53.914 28.25 57.5 C31.045 62.724 34.455 67.263 38.161 71.861 C40.129 74.315 41.495 76.172 42.5 79.188 C43.16 79.188 43.82 79.188 44.5 79.188 C44.768 79.992 45.036 80.796 45.312 81.625 C45.9 82.893 45.9 82.893 46.5 84.188 C47.985 84.683 47.985 84.683 49.5 85.188 C50.797 86.543 50.797 86.543 52.25 88.375 C74.571 114.596 105.682 133.443 136.867 147.094 C140.243 148.582 143.377 150.212 146.5 152.188 C148.145 152.911 149.791 153.631 151.45 154.321 C153.796 155.313 156.11 156.366 158.426 157.426 C165.975 160.866 173.56 164.225 181.143 167.588 C186.367 169.906 191.59 172.224 196.801 174.57 C203.275 177.481 209.723 180.326 216.375 182.812 C221.641 184.782 226.569 187.164 231.566 189.73 C234.343 191.11 237.13 192.329 240 193.5 C255.61 199.89 270.708 207.089 285.5 215.188 C287.037 216.027 287.037 216.027 288.604 216.883 C291.929 218.704 295.247 220.537 298.562 222.375 C300.115 223.23 300.115 223.23 301.698 224.102 C308.257 227.768 314.443 231.743 320.5 236.188 C321.407 236.851 321.407 236.851 322.333 237.528 C332.406 245.018 341.48 253.481 350.5 262.188 C351.724 263.35 351.724 263.35 352.973 264.535 C357.401 268.823 361.288 273.457 365.141 278.266 C367.582 281.288 370.1 284.234 372.625 287.188 C379.126 294.986 384.226 303.387 388.973 312.34 C390.007 314.268 391.079 316.177 392.184 318.066 C397.679 327.65 401.132 337.701 404.5 348.188 C404.86 349.294 404.86 349.294 405.227 350.424 C407.864 358.62 409.993 366.884 411.75 375.312 C411.913 376.075 412.077 376.837 412.245 377.623 C414.845 390.797 414.663 404.322 414.63 417.695 C414.625 420.316 414.63 422.937 414.637 425.559 C414.644 439.008 414.071 451.94 411.188 465.125 C410.965 466.165 410.743 467.205 410.514 468.276 C408.828 476.024 406.845 483.611 404.5 491.188 C404.256 492.059 404.013 492.93 403.762 493.828 C401.878 500.522 399.352 506.852 396.5 513.188 C396.134 514.004 395.767 514.821 395.39 515.663 C384.586 539.538 368.238 573.649 341.764 583.685 C325.866 589.496 308.904 588.606 292.241 588.524 C288.437 588.509 284.632 588.512 280.828 588.512 C273.399 588.509 265.971 588.489 258.542 588.463 C252.502 588.442 246.462 588.427 240.421 588.415 C238.675 588.411 236.928 588.408 235.181 588.404 C233.877 588.401 233.877 588.401 232.546 588.399 C216.148 588.365 199.749 588.311 183.351 588.251 C168.367 588.197 153.384 588.169 138.4 588.154 C122.982 588.138 107.563 588.103 92.145 588.049 C83.502 588.019 74.859 587.996 66.215 587.993 C58.863 587.99 51.511 587.97 44.159 587.927 C40.413 587.906 36.667 587.893 32.92 587.901 C28.85 587.91 24.781 587.88 20.711 587.847 C19.54 587.856 18.369 587.864 17.162 587.873 C8.617 587.755 0.094 586.149 -6.569 580.403 C-13.279 573.273 -13.735 563.564 -13.5 554.188 C-12.949 546.792 -11.774 539.488 -10.5 532.188 C-10.375 531.448 -10.251 530.708 -10.122 529.946 C-5.397 503.136 7.994 478.661 24.438 457.375 C25.147 456.449 25.147 456.449 25.87 455.504 C27.032 454.026 28.26 452.601 29.5 451.188 C30.16 451.188 30.82 451.188 31.5 451.188 C31.748 450.631 31.995 450.074 32.25 449.5 C34.871 444.651 38.395 441.263 42.688 437.875 C46.113 435.138 49.424 432.37 52.625 429.375 C90.516 395.522 139.853 383.697 189.5 385.188 C194.891 385.507 200.179 386.275 205.5 387.188 C206.892 387.397 208.284 387.606 209.676 387.812 C252.197 394.405 296.31 420.758 323.5 454.188 C324.226 455.06 324.951 455.933 325.699 456.832 C331.5 463.908 331.5 463.908 331.5 466.188 C332.16 466.188 332.82 466.188 333.5 466.188 C335.817 469.229 337.392 471.85 338.562 475.5 C339.027 476.83 339.027 476.83 339.5 478.188 C340.49 478.517 341.48 478.848 342.5 479.188 C343.235 481.163 343.891 483.169 344.5 485.188 C345.47 487.202 346.462 489.207 347.5 491.188 C347.803 485.64 347.196 481.543 345.285 476.336 C344.5 474.187 344.5 474.187 343.562 470.75 C339.702 457.804 333.474 444.732 325.531 433.789 C324.5 432.188 324.5 432.188 324.5 430.188 C323.84 430.188 323.18 430.188 322.5 430.188 C321.547 428.792 320.6 427.39 319.691 425.965 C316.185 420.733 311.915 416.573 307.082 412.582 C305.5 411.188 305.5 411.188 303.562 408.75 C287.34 388.595 259.527 374.731 237.5 362.188 C236.621 361.685 235.742 361.183 234.837 360.666 C222.501 353.648 209.866 347.427 197.028 341.386 C191.47 338.751 185.99 335.961 180.5 333.188 C178.451 332.161 176.402 331.136 174.352 330.112 C172.29 329.082 170.229 328.051 168.168 327.02 C166.069 325.97 163.968 324.925 161.863 323.887 C155.7 320.842 149.629 317.63 143.563 314.397 C139.569 312.27 135.558 310.191 131.5 308.188 C131.5 307.527 131.5 306.868 131.5 306.188 C130.651 305.935 129.801 305.682 128.926 305.422 C125.272 304.105 122.024 302.394 118.688 300.438 C118.074 300.082 117.46 299.726 116.827 299.36 C112.658 296.923 108.589 294.371 104.609 291.633 C103.075 290.581 101.519 289.559 99.953 288.555 C99.123 288.021 98.293 287.487 97.438 286.938 C96.683 286.458 95.929 285.978 95.152 285.484 C94.607 285.056 94.062 284.628 93.5 284.188 C93.5 283.527 93.5 282.868 93.5 282.188 C92.806 281.957 92.113 281.726 91.398 281.488 C87.9 279.918 85.097 277.753 82.125 275.375 C80.972 274.468 79.818 273.562 78.664 272.656 C77.843 272.01 77.843 272.01 77.005 271.352 C75.211 269.964 73.369 268.659 71.5 267.375 C68.502 265.189 66.052 262.874 63.5 260.188 C60.599 257.265 57.67 254.372 54.73 251.488 C53.383 250.159 52.035 248.83 50.688 247.5 C49.995 246.824 49.302 246.148 48.588 245.451 C47.934 244.803 47.279 244.156 46.605 243.488 C46.009 242.902 45.412 242.316 44.798 241.712 C43.5 240.188 43.5 240.188 43.5 238.188 C42.51 237.857 41.52 237.528 40.5 237.188 C38.825 235.22 37.278 233.263 35.75 231.188 C34.853 229.992 33.956 228.797 33.059 227.602 C32.621 227.015 32.184 226.429 31.734 225.825 C30.135 223.704 28.474 221.635 26.812 219.562 C23.002 214.67 19.738 209.471 16.5 204.188 C15.984 203.351 15.469 202.514 14.938 201.652 C11.257 195.605 7.82 189.439 4.5 183.188 C4.152 182.534 3.804 181.88 3.445 181.207 C0.975 176.419 -1.131 171.482 -3.219 166.517 C-4.705 162.99 -6.302 159.553 -8 156.125 C-13.944 143.144 -17.283 128.228 -19.5 114.188 C-19.635 113.35 -19.771 112.512 -19.91 111.649 C-25.513 75.854 -25.445 33.302 -5.613 1.648 C-3.737 -0.814 -2.957 -0.961 0 0 Z " fill="#3DB1A9" transform="translate(286.5,206.8125)"/>
<path d="M0 0 C2.62 2.268 5.191 4.576 7.738 6.926 C9.783 8.801 11.876 10.59 14 12.375 C41.502 36.515 60.606 74.849 63.24 111.33 C63.39 115.032 63.483 118.733 63.562 122.438 C63.625 123.722 63.688 125.007 63.752 126.33 C63.909 135.596 63.909 135.596 61.32 139.593 C59.312 141.636 57.33 143.338 55 145 C53.941 145.761 53.941 145.761 52.861 146.538 C47.441 150.25 41.64 153 35 153 C35 153.66 35 154.32 35 155 C26.879 156.794 19.155 157.279 10.855 157.229 C9.574 157.23 8.293 157.23 6.973 157.231 C3.446 157.232 -0.08 157.22 -3.607 157.206 C-7.421 157.193 -11.236 157.192 -15.051 157.19 C-22.511 157.182 -29.972 157.164 -37.432 157.141 C-43.497 157.122 -49.561 157.106 -55.626 157.093 C-72.836 157.056 -90.046 157.01 -107.256 156.953 C-108.646 156.948 -108.646 156.948 -110.063 156.943 C-110.991 156.94 -111.918 156.937 -112.874 156.934 C-127.918 156.885 -142.962 156.855 -158.006 156.835 C-173.469 156.814 -188.931 156.778 -204.393 156.727 C-213.068 156.698 -221.743 156.676 -230.418 156.669 C-237.8 156.664 -245.182 156.644 -252.564 156.607 C-256.328 156.588 -260.092 156.576 -263.857 156.581 C-267.941 156.586 -272.025 156.561 -276.109 156.532 C-277.293 156.539 -278.477 156.545 -279.697 156.552 C-287.831 156.458 -294.412 155.271 -300.559 149.668 C-310.83 136.108 -308.165 122.17 -305.969 106.141 C-301.333 75.243 -287.42 45.097 -266.07 22.223 C-264.204 20.219 -262.444 18.162 -260.688 16.062 C-231.206 -17.515 -188.671 -37.214 -145 -43 C-143.08 -43.288 -143.08 -43.288 -141.121 -43.582 C-89.369 -49.833 -39.814 -32.251 0 0 Z " fill="#187F96" transform="translate(583,638)"/>
<path d="M0 0 C0 0.66 0 1.32 0 2 C0.592 2.258 1.183 2.516 1.793 2.781 C14.388 9.736 22.412 28.625 26.219 41.703 C27.426 46.797 27.838 51.778 28 57 C28.04 57.892 28.08 58.784 28.121 59.703 C28.669 81.756 20.928 101.819 6 118 C-4.281 128.39 -15.069 135.5 -29 140 C-30.201 140.392 -30.201 140.392 -31.427 140.791 C-38.426 142.908 -44.895 143.509 -52.188 143.438 C-53.28 143.43 -54.372 143.422 -55.497 143.415 C-75.498 143.01 -94.125 135.371 -108.668 121.445 C-109.822 120.235 -109.822 120.235 -111 119 C-111.585 118.401 -112.17 117.801 -112.773 117.184 C-120.192 109.096 -125.596 99.417 -129 89 C-129.373 87.864 -129.745 86.729 -130.129 85.559 C-132.48 77.739 -133.36 70.29 -133.375 62.125 C-133.377 61.27 -133.378 60.415 -133.38 59.534 C-133.032 39.525 -124.429 19.153 -110.066 5.109 C-108.091 3.338 -106.074 1.654 -104 0 C-103.043 -0.77 -103.043 -0.77 -102.066 -1.555 C-72.532 -24.493 -28.721 -25.357 0 0 Z " fill="#3DB2A9" transform="translate(625,224)"/>
<path d="M0 0 C1.18 -0.005 1.18 -0.005 2.384 -0.01 C4.05 -0.015 5.716 -0.017 7.382 -0.017 C9.928 -0.02 12.474 -0.038 15.02 -0.057 C16.638 -0.06 18.257 -0.062 19.875 -0.062 C20.636 -0.07 21.396 -0.077 22.18 -0.084 C29.014 -0.055 29.014 -0.055 32.07 2.168 C34.641 6.024 34.421 9.295 34.484 13.773 C34.504 14.613 34.523 15.452 34.543 16.316 C34.603 18.996 34.649 21.676 34.695 24.355 C34.733 26.173 34.773 27.99 34.812 29.807 C34.909 34.26 34.993 38.714 35.07 43.168 C36.17 43.183 37.27 43.197 38.403 43.212 C42.489 43.27 46.574 43.347 50.659 43.43 C52.426 43.464 54.193 43.492 55.96 43.514 C58.503 43.548 61.044 43.6 63.586 43.656 C64.375 43.663 65.163 43.669 65.976 43.676 C69.05 43.758 71.695 44.021 74.57 45.144 C77.026 48.457 76.619 52.109 76.566 56.07 C76.568 56.944 76.569 57.819 76.571 58.719 C76.569 60.568 76.558 62.416 76.537 64.264 C76.508 67.092 76.516 69.917 76.529 72.744 C76.523 74.54 76.515 76.337 76.504 78.133 C76.507 78.978 76.51 79.823 76.513 80.693 C76.458 84.131 76.363 86.568 74.841 89.686 C72.573 91.584 71.244 91.756 68.301 91.914 C67.323 91.969 66.345 92.025 65.337 92.082 C59.351 92.24 53.371 92.271 47.383 92.23 C46.097 92.226 44.811 92.221 43.486 92.217 C40.348 92.205 37.209 92.189 34.07 92.168 C34.096 93.263 34.123 94.357 34.15 95.485 C34.24 99.557 34.298 103.629 34.345 107.701 C34.37 109.462 34.404 111.222 34.448 112.983 C34.508 115.517 34.537 118.051 34.559 120.586 C34.584 121.369 34.61 122.153 34.637 122.96 C34.639 126.951 34.341 128.763 32.067 132.167 C28.231 134.728 25.091 134.857 20.629 134.762 C19.824 134.762 19.02 134.762 18.19 134.762 C16.495 134.756 14.8 134.739 13.105 134.71 C10.512 134.668 7.923 134.669 5.33 134.676 C3.68 134.665 2.029 134.652 0.379 134.637 C-0.394 134.637 -1.167 134.636 -1.964 134.636 C-5.176 134.566 -7.541 134.38 -10.386 132.826 C-15.428 127.409 -14.014 116.379 -13.77 109.418 C-13.538 103.999 -13.251 98.583 -12.93 93.168 C-16.511 91.974 -19.792 92.014 -23.52 91.992 C-25.041 91.969 -26.563 91.945 -28.084 91.92 C-30.478 91.885 -32.872 91.855 -35.266 91.842 C-37.581 91.827 -39.893 91.786 -42.207 91.742 C-43.278 91.745 -43.278 91.745 -44.37 91.748 C-47.807 91.663 -49.615 91.416 -52.35 89.257 C-55.227 85.453 -55.105 82.328 -55.133 77.711 C-55.139 76.971 -55.144 76.231 -55.15 75.469 C-55.16 73.901 -55.166 72.333 -55.17 70.765 C-55.18 68.375 -55.211 65.986 -55.242 63.596 C-55.249 62.072 -55.254 60.548 -55.258 59.023 C-55.27 58.312 -55.283 57.6 -55.295 56.867 C-55.27 51.247 -53.859 48.097 -49.93 44.168 C-47.138 43.922 -44.437 43.794 -41.641 43.754 C-40.822 43.735 -40.004 43.715 -39.161 43.695 C-36.542 43.635 -33.923 43.589 -31.305 43.543 C-29.531 43.505 -27.758 43.466 -25.984 43.426 C-21.633 43.33 -17.281 43.246 -12.93 43.168 C-12.945 42.144 -12.961 41.121 -12.977 40.066 C-13.032 36.244 -13.066 32.422 -13.094 28.599 C-13.11 26.949 -13.13 25.299 -13.156 23.65 C-13.193 21.269 -13.209 18.889 -13.223 16.508 C-13.238 15.778 -13.254 15.049 -13.27 14.297 C-13.271 9.215 -12.314 5.68 -9.93 1.168 C-6.794 -0.4 -3.443 0.005 0 0 Z " fill="#3CB2A9" transform="translate(703.9296875,331.83203125)"/>
<path d="M0 0 C2.5 1.188 2.5 1.188 4.5 3.188 C5.213 5.197 5.213 5.197 5.879 7.648 C7.455 13.154 9.386 18.468 11.438 23.812 C11.772 24.702 12.107 25.591 12.451 26.508 C15.19 33.686 18.323 40.464 22.375 47 C24.483 50.439 26.405 53.914 28.25 57.5 C31.045 62.724 34.455 67.263 38.161 71.861 C40.129 74.315 41.495 76.172 42.5 79.188 C43.16 79.188 43.82 79.188 44.5 79.188 C44.768 79.992 45.036 80.796 45.312 81.625 C45.9 82.893 45.9 82.893 46.5 84.188 C47.985 84.683 47.985 84.683 49.5 85.188 C50.797 86.543 50.797 86.543 52.25 88.375 C74.571 114.596 105.682 133.443 136.867 147.094 C140.243 148.582 143.377 150.212 146.5 152.188 C148.145 152.911 149.791 153.631 151.45 154.321 C153.796 155.313 156.11 156.366 158.426 157.426 C165.975 160.866 173.56 164.225 181.143 167.588 C186.367 169.906 191.59 172.224 196.801 174.57 C203.275 177.481 209.723 180.326 216.375 182.812 C221.641 184.782 226.569 187.164 231.566 189.73 C234.343 191.11 237.13 192.329 240 193.5 C255.61 199.89 270.708 207.089 285.5 215.188 C287.037 216.027 287.037 216.027 288.604 216.883 C291.929 218.704 295.247 220.537 298.562 222.375 C300.115 223.23 300.115 223.23 301.698 224.102 C308.257 227.768 314.443 231.743 320.5 236.188 C321.407 236.851 321.407 236.851 322.333 237.528 C332.406 245.018 341.48 253.481 350.5 262.188 C351.724 263.35 351.724 263.35 352.973 264.535 C357.401 268.823 361.288 273.457 365.141 278.266 C367.582 281.288 370.1 284.234 372.625 287.188 C379.126 294.986 384.226 303.387 388.973 312.34 C390.007 314.268 391.079 316.177 392.184 318.066 C397.679 327.65 401.132 337.701 404.5 348.188 C404.86 349.294 404.86 349.294 405.227 350.424 C407.864 358.62 409.993 366.884 411.75 375.312 C411.913 376.075 412.077 376.837 412.245 377.623 C414.845 390.797 414.663 404.322 414.63 417.695 C414.625 420.316 414.63 422.937 414.637 425.559 C414.644 439.008 414.071 451.94 411.188 465.125 C410.965 466.165 410.743 467.205 410.514 468.276 C408.828 476.024 406.845 483.611 404.5 491.188 C404.256 492.059 404.013 492.93 403.762 493.828 C401.878 500.522 399.352 506.852 396.5 513.188 C396.134 514.004 395.767 514.821 395.39 515.663 C384.27 540.236 368.186 572.961 341.5 583.938 C338.085 585.152 335.144 585.461 331.5 585.188 C334.337 583.701 337.173 582.573 340.188 581.5 C345.782 579.287 349.947 576.055 354.5 572.188 C355.071 571.761 355.642 571.334 356.23 570.895 C390.535 544.413 405.403 489.099 411.218 448.389 C414.914 419.554 413.008 389.269 405.5 361.188 C405.193 360.018 405.193 360.018 404.88 358.825 C392.291 311.695 362.21 269.566 322.5 241.188 C321.462 240.428 320.425 239.669 319.355 238.887 C285.721 214.874 246.378 198.964 208.625 182.695 C97.994 135.013 97.994 135.013 65.887 105.387 C64.305 103.93 62.704 102.494 61.082 101.082 C49.243 90.749 39.351 79.141 30.5 66.188 C30.08 65.576 29.66 64.965 29.228 64.334 C16.265 45.205 7.858 23.98 0.5 2.188 C-1.448 2.497 -1.448 2.497 -3.5 3.188 C-13.379 17.686 -16.314 36.167 -18.5 53.188 C-18.644 54.221 -18.644 54.221 -18.79 55.275 C-26.615 116.474 -2.384 176.849 34.074 224.867 C38.05 229.97 42.338 234.73 46.82 239.391 C49.213 241.888 51.492 244.444 53.75 247.062 C56.758 250.467 59.933 253.47 63.402 256.398 C65.642 258.309 67.782 260.307 69.938 262.312 C90.763 281.039 115.011 295.459 139.389 309.011 C141.58 310.232 143.765 311.463 145.949 312.695 C155.093 317.838 164.325 322.714 173.746 327.327 C176.338 328.599 178.919 329.893 181.5 331.188 C182.284 331.579 183.067 331.971 183.875 332.375 C184.411 332.643 184.947 332.911 185.5 333.188 C182.5 334.188 182.5 334.188 179.129 332.746 C177.768 332.049 176.413 331.341 175.062 330.625 C173.604 329.872 172.146 329.12 170.688 328.367 C169.971 327.993 169.254 327.619 168.516 327.233 C165.883 325.867 163.224 324.559 160.562 323.25 C154.811 320.378 149.133 317.371 143.461 314.346 C139.501 312.235 135.524 310.174 131.5 308.188 C131.5 307.527 131.5 306.868 131.5 306.188 C130.651 305.935 129.801 305.682 128.926 305.422 C125.272 304.105 122.024 302.394 118.688 300.438 C118.074 300.082 117.46 299.726 116.827 299.36 C112.658 296.923 108.589 294.371 104.609 291.633 C103.075 290.581 101.519 289.559 99.953 288.555 C99.123 288.021 98.293 287.487 97.438 286.938 C96.683 286.458 95.929 285.978 95.152 285.484 C94.607 285.056 94.062 284.628 93.5 284.188 C93.5 283.527 93.5 282.868 93.5 282.188 C92.806 281.957 92.113 281.726 91.398 281.488 C87.9 279.918 85.097 277.753 82.125 275.375 C80.972 274.468 79.818 273.562 78.664 272.656 C77.843 272.01 77.843 272.01 77.005 271.352 C75.211 269.964 73.369 268.659 71.5 267.375 C68.502 265.189 66.052 262.874 63.5 260.188 C60.599 257.265 57.67 254.372 54.73 251.488 C53.383 250.159 52.035 248.83 50.688 247.5 C49.995 246.824 49.302 246.148 48.588 245.451 C47.934 244.803 47.279 244.156 46.605 243.488 C46.009 242.902 45.412 242.316 44.798 241.712 C43.5 240.188 43.5 240.188 43.5 238.188 C42.51 237.857 41.52 237.528 40.5 237.188 C38.825 235.22 37.278 233.263 35.75 231.188 C34.853 229.992 33.956 228.797 33.059 227.602 C32.621 227.015 32.184 226.429 31.734 225.825 C30.135 223.704 28.474 221.635 26.812 219.562 C23.002 214.67 19.738 209.471 16.5 204.188 C15.984 203.351 15.469 202.514 14.938 201.652 C11.257 195.605 7.82 189.439 4.5 183.188 C4.152 182.534 3.804 181.88 3.445 181.207 C0.975 176.419 -1.131 171.482 -3.219 166.517 C-4.705 162.99 -6.302 159.553 -8 156.125 C-13.944 143.144 -17.283 128.228 -19.5 114.188 C-19.635 113.35 -19.771 112.512 -19.91 111.649 C-25.513 75.854 -25.445 33.302 -5.613 1.648 C-3.737 -0.814 -2.957 -0.961 0 0 Z " fill="#F1F9F9" transform="translate(286.5,206.8125)"/>
<path d="M0 0 C5.222 1.588 10.027 3.777 14.938 6.125 C16.195 6.723 16.195 6.723 17.478 7.334 C23.239 10.098 28.905 13.003 34.517 16.058 C38.21 18.065 41.937 19.963 45.72 21.794 C66.433 31.857 86.061 44.576 104 59 C105.024 59.817 106.047 60.635 107.102 61.477 C141.315 89.324 163.829 124.512 168.695 168.887 C169.197 173.92 169.619 178.957 170 184 C167.144 181.144 166.531 177.65 165.375 173.875 C162.449 164.732 158.577 156.418 154 148 C153.446 146.953 152.891 145.907 152.32 144.828 C146.125 133.624 137.954 123.947 129.312 114.562 C128.803 114.008 128.293 113.453 127.767 112.881 C93.129 76.009 45.222 55.646 -4.867 53.68 C-55.199 52.473 -100.596 69.67 -138 103 C-138.552 103.485 -139.103 103.969 -139.672 104.469 C-147.221 111.117 -153.875 117.981 -160 126 C-160.737 126.922 -161.475 127.843 -162.234 128.793 C-182.651 154.876 -194.31 188.01 -196 221 C-196.079 222.4 -196.079 222.4 -196.16 223.828 C-196.482 234.084 -193.438 240.166 -187 248 C-189.619 247.619 -190.792 247.213 -192.668 245.293 C-193.169 244.598 -193.671 243.903 -194.188 243.188 C-194.951 242.157 -194.951 242.157 -195.73 241.105 C-202.834 229.325 -198.197 210.587 -196 198 C-195.875 197.26 -195.751 196.52 -195.622 195.758 C-190.897 168.948 -177.506 144.474 -161.062 123.188 C-160.59 122.57 -160.117 121.953 -159.63 121.317 C-158.468 119.839 -157.24 118.413 -156 117 C-155.34 117 -154.68 117 -154 117 C-153.629 116.165 -153.629 116.165 -153.25 115.312 C-150.629 110.463 -147.105 107.076 -142.812 103.688 C-139.387 100.951 -136.076 98.182 -132.875 95.188 C-94.984 61.334 -45.647 49.51 4 51 C9.391 51.319 14.679 52.088 20 53 C21.392 53.21 22.784 53.418 24.176 53.625 C66.697 60.218 110.81 86.57 138 120 C138.726 120.873 139.451 121.745 140.199 122.645 C146 129.721 146 129.721 146 132 C146.66 132 147.32 132 148 132 C150.317 135.041 151.892 137.662 153.062 141.312 C153.527 142.643 153.527 142.643 154 144 C154.99 144.33 155.98 144.66 157 145 C157.735 146.976 158.391 148.982 159 151 C159.97 153.015 160.962 155.019 162 157 C162.303 151.453 161.696 147.355 159.785 142.148 C159 140 159 140 158.062 136.562 C154.202 123.617 147.974 110.544 140.031 99.602 C139 98 139 98 139 96 C138.34 96 137.68 96 137 96 C136.047 94.604 135.1 93.203 134.191 91.777 C130.685 86.546 126.415 82.385 121.582 78.395 C120 77 120 77 118.062 74.562 C101.84 54.408 74.027 40.543 52 28 C51.121 27.498 50.242 26.996 49.337 26.479 C38.749 20.455 27.991 14.94 16.951 9.79 C11.16 7.084 5.542 4.187 0 1 C0 0.67 0 0.34 0 0 Z " fill="#EFF8F8" transform="translate(472,541)"/>
<path d="M0 0 C1.18 -0.005 1.18 -0.005 2.384 -0.01 C4.05 -0.015 5.716 -0.017 7.382 -0.017 C9.928 -0.02 12.474 -0.038 15.02 -0.057 C16.638 -0.06 18.257 -0.062 19.875 -0.062 C20.636 -0.07 21.396 -0.077 22.18 -0.084 C29.014 -0.055 29.014 -0.055 32.07 2.168 C34.641 6.024 34.421 9.295 34.484 13.773 C34.504 14.613 34.523 15.452 34.543 16.316 C34.603 18.996 34.649 21.676 34.695 24.355 C34.733 26.173 34.773 27.99 34.812 29.807 C34.909 34.26 34.993 38.714 35.07 43.168 C36.17 43.183 37.27 43.197 38.403 43.212 C42.489 43.27 46.574 43.347 50.659 43.43 C52.426 43.464 54.193 43.492 55.96 43.514 C58.503 43.548 61.044 43.6 63.586 43.656 C64.375 43.663 65.163 43.669 65.976 43.676 C69.05 43.758 71.695 44.021 74.57 45.144 C77.026 48.457 76.619 52.109 76.566 56.07 C76.568 56.944 76.569 57.819 76.571 58.719 C76.569 60.568 76.558 62.416 76.537 64.264 C76.508 67.092 76.516 69.917 76.529 72.744 C76.523 74.54 76.515 76.337 76.504 78.133 C76.507 78.978 76.51 79.823 76.513 80.693 C76.458 84.131 76.363 86.568 74.841 89.686 C72.573 91.584 71.244 91.756 68.301 91.914 C67.323 91.969 66.345 92.025 65.337 92.082 C59.351 92.24 53.371 92.271 47.383 92.23 C46.097 92.226 44.811 92.221 43.486 92.217 C40.348 92.205 37.209 92.189 34.07 92.168 C34.096 93.263 34.123 94.357 34.15 95.485 C34.24 99.557 34.298 103.629 34.345 107.701 C34.37 109.462 34.404 111.222 34.448 112.983 C34.508 115.517 34.537 118.051 34.559 120.586 C34.584 121.369 34.61 122.153 34.637 122.96 C34.639 126.951 34.341 128.763 32.067 132.167 C28.231 134.728 25.091 134.857 20.629 134.762 C19.824 134.762 19.02 134.762 18.19 134.762 C16.495 134.756 14.8 134.739 13.105 134.71 C10.512 134.668 7.923 134.669 5.33 134.676 C3.68 134.665 2.029 134.652 0.379 134.637 C-0.394 134.637 -1.167 134.636 -1.964 134.636 C-5.176 134.566 -7.541 134.38 -10.386 132.826 C-15.428 127.409 -14.014 116.379 -13.77 109.418 C-13.538 103.999 -13.251 98.583 -12.93 93.168 C-16.511 91.974 -19.792 92.014 -23.52 91.992 C-25.041 91.969 -26.563 91.945 -28.084 91.92 C-30.478 91.885 -32.872 91.855 -35.266 91.842 C-37.581 91.827 -39.893 91.786 -42.207 91.742 C-43.278 91.745 -43.278 91.745 -44.37 91.748 C-47.807 91.663 -49.615 91.416 -52.35 89.257 C-55.227 85.453 -55.105 82.328 -55.133 77.711 C-55.139 76.971 -55.144 76.231 -55.15 75.469 C-55.16 73.901 -55.166 72.333 -55.17 70.765 C-55.18 68.375 -55.211 65.986 -55.242 63.596 C-55.249 62.072 -55.254 60.548 -55.258 59.023 C-55.27 58.312 -55.283 57.6 -55.295 56.867 C-55.27 51.247 -53.859 48.097 -49.93 44.168 C-47.138 43.922 -44.437 43.794 -41.641 43.754 C-40.822 43.735 -40.004 43.715 -39.161 43.695 C-36.542 43.635 -33.923 43.589 -31.305 43.543 C-29.531 43.505 -27.758 43.466 -25.984 43.426 C-21.633 43.33 -17.281 43.246 -12.93 43.168 C-12.945 42.144 -12.961 41.121 -12.977 40.066 C-13.032 36.244 -13.066 32.422 -13.094 28.599 C-13.11 26.949 -13.13 25.299 -13.156 23.65 C-13.193 21.269 -13.209 18.889 -13.223 16.508 C-13.238 15.778 -13.254 15.049 -13.27 14.297 C-13.271 9.215 -12.314 5.68 -9.93 1.168 C-6.794 -0.4 -3.443 0.005 0 0 Z M-9.399 3.628 C-11.709 7.461 -11.426 10.917 -11.32 15.309 C-11.312 16.632 -11.312 16.632 -11.303 17.982 C-11.281 20.794 -11.231 23.606 -11.18 26.418 C-11.16 28.327 -11.141 30.236 -11.125 32.145 C-11.081 36.82 -11.012 41.494 -10.93 46.168 C-12.686 46.152 -12.686 46.152 -14.478 46.136 C-18.813 46.1 -23.148 46.077 -27.482 46.058 C-29.36 46.048 -31.238 46.034 -33.116 46.017 C-35.812 45.993 -38.507 45.981 -41.203 45.973 C-42.467 45.957 -42.467 45.957 -43.757 45.941 C-45.816 45.941 -47.874 46.045 -49.93 46.168 C-52.966 49.205 -52.275 52.713 -52.301 56.789 C-52.31 57.645 -52.319 58.5 -52.328 59.382 C-52.343 61.194 -52.352 63.005 -52.355 64.817 C-52.367 67.592 -52.416 70.364 -52.467 73.139 C-52.476 74.897 -52.483 76.656 -52.488 78.414 C-52.508 79.245 -52.527 80.077 -52.547 80.933 C-52.513 85.554 -52.513 85.554 -49.917 89.197 C-46.089 90.441 -42.544 90.542 -38.566 90.461 C-37.774 90.457 -36.982 90.452 -36.166 90.448 C-33.65 90.431 -31.134 90.394 -28.617 90.355 C-26.906 90.34 -25.194 90.327 -23.482 90.314 C-19.298 90.281 -15.114 90.23 -10.93 90.168 C-10.953 91.917 -10.953 91.917 -10.977 93.7 C-11.032 98.022 -11.066 102.344 -11.094 106.666 C-11.11 108.537 -11.13 110.408 -11.156 112.279 C-11.192 114.967 -11.209 117.655 -11.223 120.344 C-11.238 121.181 -11.254 122.019 -11.27 122.882 C-11.395 127.15 -11.395 127.15 -9.646 130.89 C-6.651 133.121 -2.986 132.572 0.605 132.531 C1.44 132.532 2.274 132.532 3.134 132.533 C4.897 132.53 6.66 132.521 8.422 132.504 C11.126 132.481 13.829 132.484 16.533 132.49 C18.245 132.485 19.956 132.478 21.668 132.469 C22.885 132.47 22.885 132.47 24.127 132.472 C28.57 132.595 28.57 132.595 32.07 130.168 C32.246 127.155 32.302 124.235 32.266 121.223 C32.261 119.895 32.261 119.895 32.257 118.541 C32.246 115.708 32.221 112.876 32.195 110.043 C32.185 108.125 32.176 106.207 32.168 104.289 C32.146 99.582 32.111 94.875 32.07 90.168 C33.236 90.184 34.402 90.199 35.603 90.216 C39.924 90.27 44.246 90.304 48.568 90.333 C50.439 90.348 52.31 90.368 54.181 90.394 C56.87 90.431 59.558 90.448 62.246 90.461 C63.084 90.476 63.921 90.492 64.784 90.508 C69.05 90.632 69.05 90.632 72.792 88.89 C75.052 85.845 74.474 82.063 74.434 78.414 C74.434 77.557 74.435 76.701 74.435 75.818 C74.433 74.008 74.423 72.199 74.406 70.389 C74.383 67.612 74.386 64.837 74.393 62.061 C74.387 60.303 74.38 58.546 74.371 56.789 C74.372 55.956 74.373 55.122 74.374 54.264 C74.512 49.741 74.512 49.741 72.07 46.168 C69.057 45.993 66.137 45.937 63.125 45.973 C61.797 45.977 61.797 45.977 60.443 45.981 C57.61 45.992 54.778 46.018 51.945 46.043 C50.027 46.053 48.109 46.062 46.191 46.07 C41.484 46.092 36.777 46.127 32.07 46.168 C32.091 44.942 32.112 43.715 32.134 42.452 C32.206 37.907 32.252 33.361 32.29 28.816 C32.31 26.847 32.337 24.879 32.372 22.911 C32.421 20.084 32.443 17.257 32.461 14.43 C32.492 13.108 32.492 13.108 32.523 11.759 C32.599 7.114 32.599 7.114 30.54 3.116 C27.087 1.791 23.811 1.72 20.164 1.734 C19.402 1.729 18.641 1.724 17.856 1.718 C16.249 1.712 14.642 1.713 13.035 1.722 C10.578 1.73 8.124 1.702 5.668 1.67 C4.104 1.668 2.54 1.669 0.977 1.672 C0.244 1.661 -0.488 1.649 -1.243 1.638 C-4.442 1.681 -6.628 1.99 -9.399 3.628 Z " fill="#EEF8F7" transform="translate(703.9296875,331.83203125)"/>
<path d="M0 0 C0 0.66 0 1.32 0 2 C0.592 2.258 1.183 2.516 1.793 2.781 C14.388 9.736 22.412 28.625 26.219 41.703 C27.426 46.797 27.838 51.778 28 57 C28.04 57.892 28.08 58.784 28.121 59.703 C28.669 81.756 20.928 101.819 6 118 C-4.281 128.39 -15.069 135.5 -29 140 C-30.201 140.392 -30.201 140.392 -31.427 140.791 C-38.426 142.908 -44.895 143.509 -52.188 143.438 C-53.28 143.43 -54.372 143.422 -55.497 143.415 C-75.498 143.01 -94.125 135.371 -108.668 121.445 C-109.822 120.235 -109.822 120.235 -111 119 C-111.585 118.401 -112.17 117.801 -112.773 117.184 C-120.192 109.096 -125.596 99.417 -129 89 C-129.373 87.864 -129.745 86.729 -130.129 85.559 C-132.48 77.739 -133.36 70.29 -133.375 62.125 C-133.377 61.27 -133.378 60.415 -133.38 59.534 C-133.032 39.525 -124.429 19.153 -110.066 5.109 C-108.091 3.338 -106.074 1.654 -104 0 C-103.043 -0.77 -103.043 -0.77 -102.066 -1.555 C-72.532 -24.493 -28.721 -25.357 0 0 Z M-106 4 C-106.632 4.563 -107.263 5.127 -107.914 5.707 C-121.783 18.751 -130.561 37.809 -131.309 56.777 C-131.706 78.884 -126.851 99.22 -111.238 115.72 C-109.839 117.16 -108.42 118.58 -107 120 C-106.245 120.755 -105.489 121.511 -104.711 122.289 C-94.914 131.516 -83.726 136.299 -71 140 C-70.395 140.179 -69.79 140.358 -69.167 140.542 C-49.163 144.77 -28.398 140.669 -11.219 130.168 C7.109 117.824 20.383 100.685 25.375 78.938 C28.535 56.551 25.327 34.603 12 16 C2.212 3.276 -10 -6.16 -25 -12 C-25.996 -12.414 -26.993 -12.828 -28.02 -13.254 C-54.445 -22.605 -85.693 -14.608 -106 4 Z " fill="#EDF7F7" transform="translate(625,224)"/>
<path d="M0 0 C12.378 5.213 24.145 11.542 35.875 18.062 C36.92 18.64 37.966 19.217 39.042 19.812 C45.65 23.515 51.894 27.518 58 32 C58.605 32.442 59.209 32.884 59.833 33.34 C69.906 40.83 78.98 49.294 88 58 C89.224 59.162 89.224 59.162 90.473 60.348 C94.901 64.635 98.788 69.269 102.641 74.078 C105.082 77.101 107.6 80.047 110.125 83 C116.626 90.799 121.726 99.2 126.473 108.152 C127.507 110.081 128.579 111.99 129.684 113.879 C135.179 123.462 138.632 133.513 142 144 C142.24 144.738 142.48 145.476 142.727 146.236 C145.364 154.432 147.493 162.696 149.25 171.125 C149.413 171.887 149.577 172.65 149.745 173.436 C152.345 186.61 152.163 200.134 152.13 213.507 C152.125 216.129 152.13 218.75 152.137 221.371 C152.144 234.82 151.571 247.753 148.688 260.938 C148.354 262.497 148.354 262.497 148.014 264.088 C146.328 271.837 144.345 279.423 142 287 C141.756 287.871 141.513 288.743 141.262 289.641 C139.378 296.334 136.852 302.665 134 309 C133.634 309.817 133.267 310.634 132.89 311.476 C121.77 336.048 105.686 368.773 79 379.75 C75.585 380.965 72.644 381.273 69 381 C71.837 379.514 74.673 378.385 77.688 377.312 C83.282 375.099 87.447 371.867 92 368 C92.571 367.573 93.142 367.147 93.73 366.707 C128.035 340.225 142.903 284.912 148.718 244.202 C152.414 215.366 150.508 185.082 143 157 C142.795 156.22 142.591 155.441 142.38 154.637 C129.791 107.508 99.71 65.379 60 37 C58.962 36.241 57.925 35.481 56.855 34.699 C45.943 26.908 34.435 20.228 22.5 14.137 C21.843 13.801 21.187 13.465 20.51 13.119 C17.194 11.426 13.871 9.748 10.537 8.089 C9.306 7.467 8.075 6.845 6.844 6.223 C5.742 5.674 4.641 5.125 3.506 4.559 C1 3 1 3 0 0 Z " fill="#F0F9F8" transform="translate(549,411)"/>
<path d="M0 0 C5.222 1.588 10.027 3.777 14.938 6.125 C16.195 6.723 16.195 6.723 17.478 7.334 C23.239 10.098 28.905 13.003 34.517 16.058 C38.21 18.065 41.937 19.963 45.72 21.794 C66.433 31.857 86.061 44.576 104 59 C105.024 59.817 106.047 60.635 107.102 61.477 C141.315 89.324 163.829 124.512 168.695 168.887 C169.197 173.92 169.619 178.957 170 184 C167.144 181.144 166.531 177.65 165.375 173.875 C162.449 164.732 158.577 156.418 154 148 C153.446 146.953 152.891 145.907 152.32 144.828 C144.402 130.507 133.258 118.734 122 107 C122.99 106.67 123.98 106.34 125 106 C127.57 108.681 130.129 111.371 132.688 114.062 C133.409 114.815 134.13 115.567 134.873 116.342 C146 128.078 146 128.078 146 132 C146.66 132 147.32 132 148 132 C150.317 135.041 151.892 137.662 153.062 141.312 C153.372 142.199 153.681 143.086 154 144 C154.99 144.33 155.98 144.66 157 145 C157.735 146.976 158.391 148.982 159 151 C159.97 153.015 160.962 155.019 162 157 C162.303 151.453 161.696 147.355 159.785 142.148 C159 140 159 140 158.062 136.562 C154.202 123.617 147.974 110.544 140.031 99.602 C139 98 139 98 139 96 C138.34 96 137.68 96 137 96 C136.047 94.604 135.1 93.203 134.191 91.777 C130.685 86.546 126.415 82.385 121.582 78.395 C120 77 120 77 118.062 74.562 C101.84 54.408 74.027 40.543 52 28 C51.121 27.498 50.242 26.996 49.337 26.479 C38.749 20.455 27.991 14.94 16.951 9.79 C11.16 7.084 5.542 4.187 0 1 C0 0.67 0 0.34 0 0 Z " fill="#F3FAF9" transform="translate(472,541)"/>
<path d="M0 0 C0.33 0 0.66 0 1 0 C1.054 0.611 1.108 1.221 1.164 1.851 C6.204 55.836 29.524 108.907 67.32 148.203 C69.713 150.701 71.992 153.256 74.25 155.875 C77.258 159.279 80.433 162.283 83.902 165.211 C86.142 167.121 88.282 169.119 90.438 171.125 C111.263 189.852 135.511 204.271 159.889 217.823 C162.08 219.044 164.265 220.275 166.449 221.508 C175.593 226.65 184.825 231.526 194.246 236.139 C196.838 237.411 199.419 238.706 202 240 C202.784 240.392 203.567 240.784 204.375 241.188 C204.911 241.456 205.447 241.724 206 242 C203 243 203 243 199.629 241.559 C198.268 240.862 196.913 240.154 195.562 239.438 C194.104 238.685 192.646 237.932 191.188 237.18 C190.471 236.806 189.754 236.431 189.016 236.046 C186.383 234.68 183.724 233.371 181.062 232.062 C175.311 229.191 169.633 226.184 163.961 223.158 C160.001 221.048 156.024 218.987 152 217 C152 216.34 152 215.68 152 215 C150.726 214.621 150.726 214.621 149.426 214.234 C145.772 212.918 142.524 211.206 139.188 209.25 C138.574 208.894 137.96 208.539 137.327 208.172 C133.158 205.735 129.089 203.183 125.109 200.445 C123.575 199.394 122.019 198.371 120.453 197.367 C119.623 196.834 118.793 196.3 117.938 195.75 C117.183 195.27 116.429 194.791 115.652 194.297 C115.107 193.869 114.562 193.441 114 193 C114 192.34 114 191.68 114 191 C113.306 190.769 112.613 190.539 111.898 190.301 C108.4 188.731 105.597 186.565 102.625 184.188 C101.472 183.28 100.318 182.374 99.164 181.469 C98.343 180.823 98.343 180.823 97.505 180.164 C95.711 178.776 93.869 177.472 92 176.188 C89.002 174.002 86.552 171.686 84 169 C81.099 166.078 78.17 163.184 75.23 160.301 C73.883 158.971 72.535 157.642 71.188 156.312 C70.495 155.636 69.802 154.96 69.088 154.264 C68.434 153.616 67.779 152.968 67.105 152.301 C66.509 151.715 65.912 151.129 65.298 150.525 C64 149 64 149 64 147 C63.01 146.67 62.02 146.34 61 146 C59.325 144.032 57.778 142.076 56.25 140 C55.353 138.804 54.456 137.609 53.559 136.414 C53.121 135.828 52.684 135.242 52.234 134.638 C50.635 132.516 48.974 130.447 47.312 128.375 C43.502 123.482 40.238 118.284 37 113 C36.484 112.163 35.969 111.327 35.438 110.465 C31.757 104.417 28.32 98.252 25 92 C24.652 91.346 24.304 90.693 23.945 90.02 C21.475 85.231 19.369 80.295 17.281 75.329 C15.795 71.802 14.198 68.366 12.5 64.938 C6.527 51.893 3.398 37.083 1 23 C0.869 22.285 0.737 21.569 0.602 20.832 C-0.48 13.979 -0.081 6.919 0 0 Z " fill="#EDF7F7" transform="translate(266,298)"/>
<path d="M0 0 C0.33 0 0.66 0 1 0 C1.004 1.105 1.008 2.21 1.012 3.349 C1.034 7.447 1.088 11.545 1.153 15.643 C1.176 17.417 1.19 19.191 1.196 20.966 C1.205 23.516 1.246 26.064 1.293 28.613 C1.287 29.804 1.287 29.804 1.281 31.019 C1.374 34.524 1.47 36.478 4.021 38.992 C7.823 40.278 11.392 40.478 15.363 40.512 C16.155 40.53 16.947 40.548 17.763 40.566 C20.28 40.62 22.796 40.654 25.312 40.688 C27.024 40.721 28.736 40.755 30.447 40.791 C34.631 40.876 38.815 40.943 43 41 C43.03 42.756 43.03 42.756 43.06 44.548 C43.136 48.883 43.225 53.218 43.317 57.553 C43.356 59.431 43.391 61.309 43.422 63.187 C43.467 65.882 43.525 68.578 43.586 71.273 C43.597 72.116 43.609 72.959 43.621 73.827 C43.542 78.39 43.542 78.39 46 82 C48.857 82.188 51.616 82.256 54.473 82.23 C55.311 82.23 56.149 82.23 57.013 82.229 C58.786 82.226 60.558 82.218 62.331 82.206 C65.055 82.188 67.778 82.185 70.502 82.186 C72.221 82.181 73.941 82.175 75.66 82.168 C76.89 82.166 76.89 82.166 78.144 82.165 C81.877 82.491 81.877 82.491 85 81 C85.16 78.045 85.26 75.11 85.316 72.152 C85.348 70.823 85.348 70.823 85.379 69.466 C85.445 66.623 85.504 63.78 85.562 60.938 C85.606 59.015 85.649 57.092 85.693 55.17 C85.801 50.447 85.902 45.723 86 41 C87.749 40.986 87.749 40.986 89.532 40.972 C93.855 40.932 98.176 40.866 102.498 40.792 C104.369 40.764 106.24 40.743 108.111 40.729 C110.8 40.708 113.487 40.661 116.176 40.609 C117.013 40.608 117.851 40.607 118.714 40.606 C123.174 40.505 123.174 40.505 127.02 38.465 C128.404 34.984 128.48 31.646 128.512 27.953 C128.53 27.182 128.548 26.411 128.566 25.616 C128.62 23.161 128.654 20.706 128.688 18.25 C128.721 16.582 128.755 14.914 128.791 13.246 C128.876 9.164 128.943 5.082 129 1 C129.33 1 129.66 1 130 1 C130.074 6.196 130.129 11.392 130.165 16.588 C130.18 18.356 130.2 20.123 130.226 21.89 C130.263 24.432 130.28 26.973 130.293 29.516 C130.308 30.304 130.324 31.093 130.34 31.906 C130.341 35.116 130.207 37.579 128.78 40.484 C126.507 42.42 125.2 42.587 122.23 42.746 C121.253 42.801 120.275 42.857 119.267 42.914 C113.28 43.072 107.301 43.103 101.312 43.062 C100.027 43.058 98.741 43.053 97.416 43.049 C94.277 43.037 91.139 43.021 88 43 C88.026 44.095 88.052 45.189 88.079 46.317 C88.17 50.389 88.227 54.461 88.275 58.533 C88.3 60.294 88.334 62.054 88.377 63.815 C88.438 66.349 88.466 68.883 88.488 71.418 C88.514 72.201 88.54 72.985 88.566 73.792 C88.569 77.783 88.271 79.595 85.997 82.999 C82.16 85.56 79.021 85.689 74.559 85.594 C73.754 85.594 72.949 85.594 72.12 85.594 C70.425 85.589 68.73 85.571 67.034 85.542 C64.442 85.5 61.852 85.501 59.26 85.508 C57.609 85.497 55.959 85.484 54.309 85.469 C53.536 85.469 52.763 85.468 51.966 85.468 C48.754 85.398 46.389 85.212 43.543 83.658 C38.502 78.241 39.916 67.211 40.16 60.25 C40.392 54.831 40.678 49.415 41 44 C37.419 42.806 34.138 42.846 30.41 42.824 C28.889 42.801 27.367 42.777 25.846 42.752 C23.451 42.717 21.058 42.687 18.663 42.674 C16.349 42.659 14.036 42.618 11.723 42.574 C10.652 42.577 10.652 42.577 9.56 42.58 C6.122 42.495 4.314 42.248 1.58 40.089 C-1.328 36.244 -1.146 33.099 -1.133 28.438 C-1.134 27.69 -1.135 26.943 -1.136 26.174 C-1.136 24.593 -1.135 23.013 -1.13 21.433 C-1.125 19.01 -1.13 16.587 -1.137 14.164 C-1.136 12.63 -1.135 11.096 -1.133 9.562 C-1.135 8.835 -1.137 8.108 -1.139 7.359 C-1.115 2.23 -1.115 2.23 0 0 Z " fill="#ECF7F6" transform="translate(650,381)"/>
<path d="M0 0 C0 0.33 0 0.66 0 1 C-1.905 1.039 -1.905 1.039 -3.848 1.078 C-28.518 1.793 -48.637 9.147 -66.062 27 C-79.178 41.913 -85.175 59.525 -85.188 79.25 C-85.2 80.236 -85.212 81.222 -85.225 82.238 C-85.242 91.278 -83.925 99.328 -80.562 107.75 C-80.151 108.797 -79.74 109.843 -79.316 110.922 C-78.018 114.072 -78.018 114.072 -76.277 117.266 C-75.856 118.168 -75.434 119.07 -75 120 C-75.495 120.99 -75.495 120.99 -76 122 C-85.033 109.741 -88.348 94.101 -88.375 79.125 C-88.377 78.27 -88.378 77.415 -88.38 76.534 C-88.032 56.525 -79.429 36.153 -65.066 22.109 C-63.091 20.338 -61.074 18.654 -59 17 C-58.043 16.23 -58.043 16.23 -57.066 15.445 C-39.353 1.688 -21.983 -1.948 0 0 Z " fill="#EDF8F7" transform="translate(580,207)"/>
<path d="M0 0 C3.525 0.575 5.087 1.755 7.496 4.352 C8.137 5.039 8.779 5.726 9.439 6.434 C10.428 7.518 10.428 7.518 11.438 8.625 C12.093 9.325 12.748 10.025 13.424 10.746 C24 22.182 24 22.182 24 26 C24.66 26 25.32 26 26 26 C28.317 29.041 29.892 31.662 31.062 35.312 C31.372 36.199 31.681 37.086 32 38 C32.99 38.33 33.98 38.66 35 39 C35.735 40.976 36.391 42.982 37 45 C37.97 47.015 38.962 49.019 40 51 C40.308 45.357 39.68 41.322 37.559 36.078 C36.912 33.671 37.207 32.331 38 30 C40 31 40 31 40.746 33.167 C41.512 36.358 42.272 39.55 43 42.75 C43.268 43.913 43.535 45.075 43.811 46.273 C46.137 56.801 47.338 67.252 48 78 C45.144 75.144 44.531 71.65 43.375 67.875 C40.449 58.732 36.577 50.418 32 42 C31.446 40.953 30.891 39.907 30.32 38.828 C23.447 26.397 14.196 15.925 4.42 5.71 C0 1.09 0 1.09 0 0 Z " fill="#EFF8F8" transform="translate(594,647)"/>
<path d="M0 0 C2.5 1.188 2.5 1.188 4.5 3.188 C5.213 5.197 5.213 5.197 5.879 7.648 C7.455 13.154 9.386 18.468 11.438 23.812 C11.772 24.702 12.107 25.591 12.451 26.508 C14.281 31.302 16.256 35.918 18.646 40.46 C19.877 42.949 20.704 45.533 21.5 48.188 C20.84 48.188 20.18 48.188 19.5 48.188 C11.934 33.244 5.893 18.038 0.5 2.188 C-1.448 2.497 -1.448 2.497 -3.5 3.188 C-13.382 17.69 -16.305 36.165 -18.5 53.188 C-18.679 54.486 -18.858 55.784 -19.043 57.121 C-19.872 64.79 -19.873 72.544 -20.062 80.25 C-20.106 81.895 -20.149 83.54 -20.193 85.186 C-20.3 89.186 -20.401 93.187 -20.5 97.188 C-20.83 97.188 -21.16 97.188 -21.5 97.188 C-26.83 66.768 -22.15 28.042 -5.613 1.648 C-3.737 -0.814 -2.957 -0.961 0 0 Z " fill="#F4FAFA" transform="translate(286.5,206.8125)"/>
<path d="M0 0 C0.921 0.178 1.842 0.356 2.79 0.539 C11.101 2.209 19.073 4.498 27.062 7.312 C28.372 7.771 28.372 7.771 29.707 8.238 C50.606 16.106 69.137 28.552 86.688 42.125 C87.267 42.569 87.847 43.013 88.445 43.47 C91.82 46.118 94.52 48.859 97.062 52.312 C93.018 52.312 92.353 50.933 89.5 48.125 C58.063 18.491 18.426 4.268 -23.938 0.312 C-23.938 -0.018 -23.938 -0.347 -23.938 -0.688 C-15.552 -2.057 -8.267 -1.61 0 0 Z " fill="#F1F9F9" transform="translate(497.9375,594.6875)"/>
<path d="M0 0 C18.873 0.156 37.692 6.368 52 19 C52 19.66 52 20.32 52 21 C52.592 21.258 53.183 21.516 53.793 21.781 C66.069 28.56 74.401 47.256 78.219 60.062 C80.084 68.144 79.864 76.744 80 85 C79.67 85 79.34 85 79 85 C78.762 83.113 78.762 83.113 78.52 81.188 C75.243 56.565 67.987 35.159 47.727 19.363 C32.811 8.356 16.166 3.934 -2 2 C-1.34 1.34 -0.68 0.68 0 0 Z " fill="#F1F9F9" transform="translate(573,205)"/>
<path d="M0 0 C3.598 1.199 4.081 2.498 5.753 5.76 C6.246 6.776 6.246 6.776 6.75 7.812 C7.098 8.52 7.446 9.228 7.804 9.957 C11.972 18.695 15.046 27.795 18 37 C18.358 38.1 18.358 38.1 18.723 39.223 C21.361 47.424 23.492 55.691 25.25 64.125 C25.413 64.887 25.577 65.65 25.745 66.436 C28.345 79.61 28.163 93.134 28.13 106.507 C28.125 109.129 28.13 111.75 28.137 114.371 C28.148 135.714 28.148 135.714 27 142 C26.34 142.33 25.68 142.66 25 143 C25.072 141.976 25.144 140.953 25.219 139.898 C27.174 109.686 26.862 79.409 19 50 C18.795 49.22 18.591 48.441 18.38 47.637 C14.792 34.207 9.706 21.656 4 9 C3.241 7.296 2.483 5.592 1.727 3.887 C1.395 3.14 1.063 2.393 0.721 1.624 C0.483 1.088 0.245 0.552 0 0 Z " fill="#F4FAFA" transform="translate(673,518)"/>
<path d="M0 0 C3.994 1.331 4.723 3.724 6.562 7.25 C9.802 13.223 13.489 18.546 17.762 23.823 C19.705 26.236 21.009 28.027 22 31 C22.66 31 23.32 31 24 31 C24.268 31.804 24.536 32.609 24.812 33.438 C25.204 34.283 25.596 35.129 26 36 C27.485 36.495 27.485 36.495 29 37 C30.297 38.355 30.297 38.355 31.75 40.188 C44.36 55.001 60.239 66.774 76 78 C75.67 78.66 75.34 79.32 75 80 C64.789 73.224 55.11 66.204 46 58 C45.387 57.449 44.775 56.898 44.144 56.331 C28.508 42.184 15.55 27.018 4.312 9.188 C3.661 8.156 3.661 8.156 2.996 7.103 C0 2.253 0 2.253 0 0 Z " fill="#ECF7F6" transform="translate(307,255)"/>
<path d="M0 0 C1.244 -0.004 2.488 -0.008 3.77 -0.012 C5.566 -0.01 5.566 -0.01 7.398 -0.008 C8.475 -0.007 9.552 -0.006 10.662 -0.004 C13.427 0.116 15.934 0.498 18.625 1.125 C18.625 1.455 18.625 1.785 18.625 2.125 C17.706 2.134 16.787 2.144 15.841 2.153 C-21.252 2.624 -54.328 7.622 -88.375 23.125 C-87.375 20.125 -87.375 20.125 -83.902 18.258 C-82.379 17.575 -80.848 16.906 -79.312 16.25 C-78.504 15.898 -77.696 15.547 -76.863 15.185 C-69.188 11.919 -61.404 9.359 -53.375 7.125 C-52.351 6.84 -51.328 6.555 -50.273 6.262 C-33.543 1.865 -17.278 -0.055 0 0 Z " fill="#F3FAFA" transform="translate(462.375,591.875)"/>
<path d="M0 0 C5.222 1.588 10.027 3.777 14.938 6.125 C16.195 6.723 16.195 6.723 17.478 7.334 C23.239 10.098 28.905 13.003 34.517 16.058 C38.21 18.065 41.937 19.963 45.72 21.794 C59.301 28.392 72.131 36.355 84.75 44.625 C85.707 45.245 85.707 45.245 86.684 45.878 C88.16 46.864 89.587 47.925 91 49 C91 49.66 91 50.32 91 51 C87.071 49.62 84.166 47.785 80.875 45.25 C76.409 41.933 71.917 39.197 66.996 36.621 C63.522 34.741 60.178 32.691 56.812 30.625 C49.74 26.321 42.454 22.596 35.012 18.979 C31.686 17.36 28.373 15.714 25.062 14.062 C24.417 13.741 23.771 13.419 23.106 13.088 C15.332 9.195 7.666 5.099 0 1 C0 0.67 0 0.34 0 0 Z " fill="#F1F9F9" transform="translate(472,541)"/>
<path d="M0 0 C4.795 1.664 8.85 4.261 13.125 6.938 C34.188 19.955 55.764 32.104 78 43 C80.001 43.998 82.001 44.998 84 46 C84.784 46.392 85.567 46.784 86.375 47.188 C86.911 47.456 87.447 47.724 88 48 C85 49 85 49 81.629 47.559 C80.268 46.862 78.913 46.154 77.562 45.438 C76.104 44.685 74.646 43.932 73.188 43.18 C72.471 42.806 71.754 42.431 71.016 42.046 C68.383 40.68 65.724 39.371 63.062 38.062 C57.311 35.191 51.633 32.184 45.961 29.158 C42.001 27.048 38.024 24.987 34 23 C34 22.34 34 21.68 34 21 C33.151 20.747 32.301 20.495 31.426 20.234 C27.772 18.918 24.523 17.207 21.188 15.25 C20.271 14.718 20.271 14.718 19.336 14.175 C12.305 10.056 5.529 6.064 0 0 Z " fill="#F3FAFA" transform="translate(384,492)"/>
<path d="M0 0 C0.33 0 0.66 0 1 0 C1 11.88 1 23.76 1 36 C3.769 36.037 6.538 36.075 9.391 36.113 C12.075 36.16 14.759 36.211 17.443 36.262 C19.307 36.296 21.171 36.324 23.036 36.346 C25.717 36.38 28.397 36.432 31.078 36.488 C32.327 36.498 32.327 36.498 33.601 36.508 C36.878 36.591 39.479 36.796 42.547 37.994 C44.912 41.259 44.373 44.751 44.172 48.605 C44.13 49.864 44.13 49.864 44.087 51.149 C43.994 53.829 43.872 56.508 43.75 59.188 C43.682 61.004 43.615 62.822 43.551 64.639 C43.389 69.094 43.201 73.547 43 78 C42.67 78 42.34 78 42 78 C41.975 76.884 41.95 75.769 41.924 74.619 C41.83 70.495 41.73 66.371 41.628 62.247 C41.584 60.459 41.543 58.671 41.503 56.884 C41.445 54.319 41.381 51.755 41.316 49.191 C41.3 48.387 41.283 47.583 41.266 46.755 C41.508 43.073 41.508 43.073 40 40 C37.045 39.84 34.11 39.74 31.152 39.684 C30.266 39.663 29.379 39.642 28.466 39.621 C25.623 39.555 22.78 39.496 19.938 39.438 C18.015 39.394 16.092 39.351 14.17 39.307 C9.447 39.199 4.723 39.1 0 39 C0 26.13 0 13.26 0 0 Z " fill="#CEEAE9" transform="translate(736,339)"/>
<path d="M0 0 C3.525 0.575 5.087 1.755 7.496 4.352 C8.137 5.039 8.779 5.726 9.439 6.434 C10.428 7.518 10.428 7.518 11.438 8.625 C12.093 9.325 12.748 10.025 13.424 10.746 C24 22.182 24 22.182 24 26 C24.66 26 25.32 26 26 26 C28.317 29.041 29.892 31.662 31.062 35.312 C31.372 36.199 31.681 37.086 32 38 C32.99 38.33 33.98 38.66 35 39 C35.735 40.976 36.391 42.982 37 45 C37.536 46.052 38.072 47.104 38.625 48.188 C40 51 40 51 40 54 C39.34 54 38.68 54 38 54 C37.515 52.984 37.031 51.968 36.531 50.922 C28.341 33.999 17.777 19.893 4.897 6.239 C1.099 2.198 1.099 2.198 0 0 Z " fill="#F1F9F9" transform="translate(594,647)"/>
<path d="M0 0 C9.182 7.55 17.354 15.888 24.746 25.184 C27.143 28.179 29.631 31.085 32.125 34 C36.621 39.377 40.418 44.985 44 51 C44.558 51.888 45.116 52.776 45.691 53.691 C47 56 47 56 47 58 C46.34 58 45.68 58 45 58 C43.442 55.652 41.992 53.3 40.562 50.875 C31.918 36.658 21.29 24.104 9.418 12.469 C8.818 11.88 8.219 11.291 7.601 10.684 C6.429 9.54 5.25 8.403 4.063 7.275 C2.653 5.905 1.319 4.458 0 3 C0 2.01 0 1.02 0 0 Z " fill="#F3FAFA" transform="translate(627,460)"/>
<path d="M0 0 C2.894 2.806 5.587 5.669 8.188 8.75 C24.951 27.934 45.711 35.175 70.543 36.852 C71.354 36.901 72.165 36.95 73 37 C73 37.33 73 37.66 73 38 C50.03 38.957 32.327 33.145 14 19 C10.943 16.092 8.086 13.053 5.312 9.875 C4.44 8.881 4.44 8.881 3.551 7.867 C0 3.592 0 3.592 0 0 Z " fill="#F5FBFA" transform="translate(505,329)"/>
<path d="M0 0 C1.1 3.301 0.947 3.888 -0.109 7.035 C-0.498 8.236 -0.498 8.236 -0.894 9.461 C-1.176 10.32 -1.459 11.178 -1.75 12.062 C-5.843 25.067 -8.301 38.367 -9 52 C-9.053 52.933 -9.106 53.867 -9.16 54.828 C-9.482 65.084 -6.438 71.166 0 79 C-2.619 78.619 -3.792 78.213 -5.668 76.293 C-6.169 75.598 -6.671 74.903 -7.188 74.188 C-7.951 73.157 -7.951 73.157 -8.73 72.105 C-17.376 57.768 -10.222 32.841 -6.631 17.807 C-5.037 11.606 -2.72 5.785 0 0 Z " fill="#F2F9F9" transform="translate(285,710)"/>
<path d="M0 0 C0.33 0 0.66 0 1 0 C1.074 5.196 1.129 10.392 1.165 15.588 C1.18 17.356 1.2 19.123 1.226 20.89 C1.263 23.432 1.28 25.973 1.293 28.516 C1.308 29.304 1.324 30.093 1.34 30.906 C1.341 34.116 1.207 36.579 -0.22 39.484 C-2.493 41.42 -3.8 41.587 -6.77 41.746 C-8.236 41.829 -8.236 41.829 -9.733 41.914 C-15.72 42.072 -21.699 42.103 -27.688 42.062 C-32.081 42.042 -36.474 42.021 -41 42 C-41 53.55 -41 65.1 -41 77 C-41.33 77 -41.66 77 -42 77 C-42 64.79 -42 52.58 -42 40 C-37.938 39.961 -37.938 39.961 -33.793 39.922 C-31.172 39.883 -28.551 39.838 -25.929 39.792 C-24.107 39.764 -22.284 39.743 -20.462 39.729 C-17.842 39.708 -15.224 39.661 -12.605 39.609 C-11.79 39.608 -10.974 39.607 -10.134 39.606 C-5.757 39.494 -5.757 39.494 -1.994 37.465 C-0.591 33.986 -0.52 30.65 -0.488 26.953 C-0.47 26.182 -0.452 25.411 -0.434 24.616 C-0.38 22.161 -0.346 19.706 -0.312 17.25 C-0.279 15.582 -0.245 13.914 -0.209 12.246 C-0.124 8.164 -0.057 4.082 0 0 Z " fill="#FDFEFE" transform="translate(779,382)"/>
<path d="M0 0 C0.921 0.178 1.842 0.356 2.79 0.539 C14.629 2.918 25.965 6.537 37.062 11.312 C37.062 12.303 37.062 13.293 37.062 14.312 C36.14 13.937 35.217 13.562 34.266 13.176 C15.275 5.642 -3.652 2.323 -23.938 0.312 C-23.938 -0.018 -23.938 -0.347 -23.938 -0.688 C-15.552 -2.057 -8.267 -1.61 0 0 Z " fill="#ECF7F7" transform="translate(497.9375,594.6875)"/>
<path d="M0 0 C0.66 0.33 1.32 0.66 2 1 C-1.951 8.014 -5.962 14.718 -11 21 C-11.656 21.852 -12.312 22.704 -12.988 23.582 C-21.354 34.207 -31.499 45.384 -45 49 C-48.5 49.188 -48.5 49.188 -51 49 C-48.163 47.514 -45.327 46.385 -42.312 45.312 C-36.718 43.099 -32.553 39.867 -28 36 C-27.429 35.573 -26.858 35.147 -26.27 34.707 C-14.896 25.927 -7.263 12.131 0 0 Z " fill="#F8FCFC" transform="translate(669,743)"/>
<path d="M0 0 C3.994 1.331 4.723 3.724 6.562 7.25 C9.802 13.223 13.489 18.546 17.762 23.823 C19.705 26.236 21.009 28.027 22 31 C22.66 31 23.32 31 24 31 C24.66 31.99 25.32 32.98 26 34 C25.67 34.99 25.34 35.98 25 37 C18.73 30.375 13.57 23.299 8.562 15.688 C7.844 14.617 7.125 13.546 6.385 12.443 C0.672 3.829 0.672 3.829 0 0 Z " fill="#F1F9F8" transform="translate(307,255)"/>
<path d="M0 0 C0.66 0 1.32 0 2 0 C2.02 1.16 2.04 2.321 2.06 3.517 C2.136 7.826 2.225 12.134 2.317 16.443 C2.356 18.307 2.391 20.171 2.422 22.036 C2.468 24.717 2.526 27.397 2.586 30.078 C2.597 30.911 2.609 31.743 2.621 32.601 C2.726 38.079 2.726 38.079 5 43 C3.062 42.188 3.062 42.188 1 41 C-3.218 28.345 -0.673 13.061 0 0 Z " fill="#F7FBFB" transform="translate(691,422)"/>
<path d="M0 0 C0.99 0.33 1.98 0.66 3 1 C4.184 3.719 4.184 3.719 5.438 7.5 C9.306 18.626 14.671 29.073 19.88 39.618 C21 42 21 42 22 45 C19 44 19 44 17.387 41.332 C16.826 40.171 16.265 39.009 15.688 37.812 C15.384 37.188 15.081 36.563 14.768 35.919 C12.15 30.464 9.757 24.916 7.418 19.336 C5.706 15.309 3.861 11.353 1.98 7.402 C0.976 4.94 0.434 2.618 0 0 Z " fill="#F4FAFA" transform="translate(275,352)"/>
<path d="M0 0 C0 0.99 0 1.98 0 3 C-2.143 4.45 -4.238 5.699 -6.5 6.938 C-14.521 11.524 -21.782 16.88 -29.082 22.525 C-32.364 25.049 -35.683 27.523 -39 30 C-32.599 16.675 -12.56 6.873 0 0 Z " fill="#F3FAF9" transform="translate(373,613)"/>
<path d="M0 0 C0.66 0 1.32 0 2 0 C2.438 0.813 2.877 1.627 3.328 2.465 C8.508 11.825 14.413 20.471 20.674 29.137 C22.511 31.719 24.261 34.351 26 37 C17.135 33.364 11.764 21.825 7 14 C6.428 13.083 5.855 12.167 5.266 11.223 C0.771 3.935 0.771 3.935 0 0 Z " fill="#EDF7F7" transform="translate(296,397)"/>
<path d="M0 0 C4.978 2.68 9.19 5.596 13.438 9.312 C14.285 10.043 14.285 10.043 15.149 10.789 C16.268 11.754 17.384 12.722 18.498 13.693 C19.758 14.789 21.028 15.875 22.301 16.957 C27.465 21.376 32.245 26.146 37 31 C36.01 31.33 35.02 31.66 34 32 C33.622 31.539 33.245 31.077 32.855 30.602 C24.728 20.97 15.326 13.25 5.131 5.935 C3.387 4.668 1.689 3.339 0 2 C0 1.34 0 0.68 0 0 Z " fill="#F9FCFC" transform="translate(563,591)"/>
<path d="M0 0 C0.99 0 1.98 0 3 0 C5.377 3.025 6.885 5.643 8.062 9.312 C8.372 10.199 8.681 11.086 9 12 C9.99 12.33 10.98 12.66 12 13 C12.735 14.976 13.391 16.982 14 19 C14.536 20.052 15.072 21.104 15.625 22.188 C17 25 17 25 17 28 C16.34 28 15.68 28 15 28 C14.504 26.973 14.007 25.945 13.496 24.887 C9.781 17.28 5.956 9.99 1.25 2.941 C0 1 0 1 0 0 Z " fill="#F4FAFA" transform="translate(617,673)"/>
<path d="M0 0 C2.983 0.051 5.795 0.233 8.75 0.562 C9.598 0.655 10.446 0.747 11.32 0.842 C18.864 1.778 26.23 3.424 33 7 C33.495 8.485 33.495 8.485 34 10 C33.475 9.83 32.951 9.66 32.41 9.484 C21.251 5.994 9.692 2.85 -2 2 C-1.34 1.34 -0.68 0.68 0 0 Z " fill="#F5FBFA" transform="translate(573,205)"/>
<path d="M0 0 C7.111 0.428 12.983 3.404 19.375 6.375 C20.48 6.87 21.584 7.365 22.723 7.875 C24.295 8.598 24.295 8.598 25.898 9.336 C26.854 9.775 27.81 10.213 28.794 10.666 C31 12 31 12 32 15 C27.754 13.659 23.763 12.058 19.727 10.18 C18.573 9.645 17.419 9.11 16.23 8.559 C15.041 8.003 13.851 7.447 12.625 6.875 C11.4 6.306 10.175 5.737 8.949 5.168 C5.965 3.782 2.982 2.392 0 1 C0 0.67 0 0.34 0 0 Z " fill="#F0F9F8" transform="translate(517,398)"/>
<path d="M0 0 C10.272 4.043 17.465 18.963 23 28 C22.01 28 21.02 28 20 28 C18.211 25.699 18.211 25.699 16.375 22.688 C15.764 21.701 15.153 20.715 14.523 19.699 C13 17 13 17 12 14 C11.34 14 10.68 14 10 14 C9.053 12.613 8.113 11.219 7.219 9.797 C5.42 7.145 3.302 4.806 1.172 2.418 C0 1 0 1 0 0 Z " fill="#F2F9F9" transform="translate(599,623)"/>
<path d="M0 0 C4.898 1.561 9.627 3.415 14.375 5.375 C15.092 5.666 15.808 5.958 16.547 6.258 C21.487 8.291 26.245 10.564 31 13 C28.147 14.178 26.966 13.989 23.976 13.012 C22.247 12.25 22.247 12.25 20.484 11.473 C19.869 11.205 19.253 10.937 18.618 10.661 C16.657 9.806 14.704 8.934 12.75 8.062 C11.42 7.479 10.089 6.896 8.758 6.314 C5.5 4.888 2.248 3.448 -1 2 C-0.67 1.34 -0.34 0.68 0 0 Z " fill="#F2F9F9" transform="translate(488,384)"/>
<path d="M0 0 C4.367 1.347 8.296 3.05 12.352 5.152 C13.224 5.604 13.224 5.604 14.113 6.064 C15.333 6.696 16.551 7.331 17.769 7.968 C19.624 8.937 21.483 9.898 23.344 10.857 C24.534 11.476 25.724 12.095 26.914 12.715 C27.986 13.273 29.058 13.831 30.163 14.406 C32.623 15.788 34.8 17.241 37 19 C32.248 18.375 28.509 16.426 24.312 14.25 C23.605 13.889 22.897 13.529 22.168 13.157 C20.757 12.438 19.346 11.717 17.937 10.993 C15.426 9.706 12.901 8.445 10.375 7.188 C6.917 5.458 3.458 3.729 0 2 C0 1.34 0 0.68 0 0 Z " fill="#F2F9F9" transform="translate(435,522)"/>
<path d="M0 0 C1.938 3.2 2.155 4.986 1.426 8.633 C1.252 9.522 1.079 10.412 0.9 11.328 C0.706 12.251 0.512 13.174 0.312 14.125 C0.138 15.025 -0.037 15.925 -0.217 16.852 C-2.731 29.394 -2.731 29.394 -5 35 C-5.99 35.495 -5.99 35.495 -7 36 C-6.886 35.436 -6.772 34.872 -6.655 34.292 C-5.187 26.994 -3.777 19.686 -2.375 12.375 C-2.146 11.18 -1.916 9.985 -1.68 8.754 C-1.119 5.836 -0.56 2.918 0 0 Z " fill="#E7F5F4" transform="translate(697,659)"/>
<path d="M0 0 C0.66 0 1.32 0 2 0 C2.626 1.708 3.251 3.416 3.875 5.125 C4.223 6.076 4.571 7.028 4.93 8.008 C5.283 8.995 5.636 9.983 6 11 C6.361 11.887 6.722 12.774 7.094 13.688 C8.382 18.395 8.467 23.014 8.625 27.875 C8.664 28.85 8.702 29.824 8.742 30.828 C8.836 33.219 8.922 35.609 9 38 C8.67 38 8.34 38 8 38 C7.841 36.742 7.683 35.484 7.52 34.188 C6.17 24.092 4.295 14.631 0.988 4.992 C0 2 0 2 0 0 Z " fill="#F4FAFA" transform="translate(644,252)"/>
<path d="M0 0 C6.119 2.143 11.762 4.844 17.375 8.062 C17.969 8.403 18.564 8.743 19.176 9.094 C22.266 10.895 25.194 12.782 28 15 C27.67 15.66 27.34 16.32 27 17 C26.395 16.652 25.791 16.304 25.167 15.946 C22.404 14.358 19.64 12.773 16.875 11.188 C15.448 10.367 15.448 10.367 13.992 9.529 C9.384 6.889 4.789 4.298 0 2 C0 1.34 0 0.68 0 0 Z " fill="#F4FAFA" transform="translate(536,607)"/>
<path d="M0 0 C4.521 3.718 8.774 7.64 12.938 11.75 C13.434 12.234 13.931 12.718 14.443 13.216 C15.668 14.438 16.839 15.716 18 17 C18 17.66 18 18.32 18 19 C13.348 16.906 10.308 13.638 6.75 10.062 C6.1 9.429 5.451 8.795 4.781 8.143 C3.861 7.223 3.861 7.223 2.922 6.285 C2.361 5.727 1.8 5.169 1.222 4.594 C0 3 0 3 0 0 Z " fill="#E6F5F4" transform="translate(627,460)"/>
<path d="M0 0 C5.26 2.191 10.354 4.615 15.438 7.188 C16.169 7.556 16.901 7.924 17.654 8.303 C19.437 9.2 21.219 10.1 23 11 C23 11.99 23 12.98 23 14 C19.346 12.245 15.703 10.469 12.062 8.688 C11.022 8.188 9.981 7.688 8.908 7.174 C7.919 6.687 6.929 6.201 5.91 5.699 C4.994 5.254 4.077 4.809 3.133 4.35 C1 3 1 3 0 0 Z " fill="#F7FCFB" transform="translate(549,411)"/>
<path d="M0 0 C2.135 0.949 4.27 1.899 6.402 2.855 C8.114 3.61 9.835 4.342 11.566 5.051 C12.369 5.385 13.173 5.719 14 6.062 C14.743 6.363 15.485 6.663 16.25 6.973 C18 8 18 8 19 11 C14.157 9.506 9.686 7.55 5.125 5.375 C4.092 4.888 4.092 4.888 3.039 4.391 C1.358 3.597 -0.321 2.799 -2 2 C-1.34 1.34 -0.68 0.68 0 0 Z " fill="#F1F9F9" transform="translate(422,354)"/>
<path d="M0 0 C7.38 3.521 14.334 7.253 21 12 C20.67 12.66 20.34 13.32 20 14 C19.465 13.702 18.93 13.405 18.379 13.098 C15.962 11.752 13.543 10.407 11.125 9.062 C9.862 8.36 9.862 8.36 8.574 7.643 C7.769 7.195 6.963 6.747 6.133 6.285 C5.389 5.871 4.646 5.458 3.879 5.031 C2.6 4.329 1.306 3.653 0 3 C0 2.01 0 1.02 0 0 Z " fill="#F2F9F9" transform="translate(573,423)"/>
<path d="M0 0 C-1.567 3.968 -4.143 6.154 -7.312 8.938 C-11 12.193 -14.555 15.493 -18 19 C-18 18.01 -18 17.02 -18 16 C-17.34 16 -16.68 16 -16 16 C-15.752 15.443 -15.505 14.886 -15.25 14.312 C-12.667 9.535 -5.976 0 0 0 Z " fill="#F0F8F8" transform="translate(334,642)"/>
<path d="M0 0 C3.335 1.112 4.104 1.995 6.312 4.625 C6.918 5.339 7.524 6.053 8.148 6.789 C8.759 7.519 9.37 8.248 10 9 C11.145 10.334 12.29 11.668 13.438 13 C14.283 13.99 15.129 14.98 16 16 C13 16 13 16 10.625 13.953 C9.759 13.061 8.892 12.169 8 11.25 C7.134 10.368 6.267 9.487 5.375 8.578 C0 2.743 0 2.743 0 0 Z " fill="#E8F6F5" transform="translate(333,291)"/>
<path d="M0 0 C0 3 0 3 -1.688 4.719 C-8.369 9.865 -14.212 13.659 -23 13 C-20.163 11.514 -17.327 10.385 -14.312 9.312 C-8.754 7.14 -4.496 3.866 0 0 Z " fill="#F8FCFC" transform="translate(641,779)"/>
<path d="M0 0 C6.01 5.48 10.955 12.023 13 20 C12.34 20 11.68 20 11 20 C9.871 18.595 9.871 18.595 8.652 16.641 C8.212 15.937 7.772 15.233 7.318 14.508 C6.863 13.763 6.407 13.018 5.938 12.25 C5.478 11.52 5.018 10.791 4.545 10.039 C2.474 6.694 0.8 3.889 0 0 Z " fill="#F2F9F9" transform="translate(661,498)"/>
<path d="M0 0 C5.976 2.775 11.14 5.523 16 10 C15.67 10.99 15.34 11.98 15 13 C14.42 12.529 13.84 12.059 13.242 11.574 C8.982 8.179 5.002 5.18 0 3 C0 2.01 0 1.02 0 0 Z " fill="#ECF7F7" transform="translate(607,213)"/>
<path d="M0 0 C0 0.66 0 1.32 0 2 C-7.26 1.34 -14.52 0.68 -22 0 C-22 -0.33 -22 -0.66 -22 -1 C-14.049 -2.298 -7.702 -2.162 0 0 Z " fill="#E5F3F3" transform="translate(496,595)"/>
<path d="M0 0 C0.66 0 1.32 0 2 0 C3.293 2.249 4.584 4.499 5.875 6.75 C6.24 7.384 6.605 8.018 6.98 8.672 C8.74 11.743 10.469 14.809 12 18 C7.791 16.495 6.455 13.926 4.312 10.125 C3.711 9.076 3.109 8.026 2.488 6.945 C1.278 4.55 0.474 2.616 0 0 Z " fill="#E9F6F5" transform="translate(296,397)"/>
<path d="M0 0 C4.722 0.482 7.701 2.697 11.312 5.562 C11.862 5.987 12.412 6.412 12.979 6.85 C14.325 7.892 15.663 8.945 17 10 C16.67 10.66 16.34 11.32 16 12 C13.33 10.193 10.664 8.378 8 6.562 C7.237 6.046 6.474 5.53 5.688 4.998 C4.966 4.505 4.244 4.012 3.5 3.504 C2.83 3.048 2.159 2.593 1.469 2.123 C0.984 1.753 0.499 1.382 0 1 C0 0.67 0 0.34 0 0 Z " fill="#E9F6F5" transform="translate(366,323)"/>
<path d="M0 0 C5.809 2.399 11.4 5.149 17 8 C15.422 8.715 15.422 8.715 13 9 C10.615 7.943 8.488 6.868 6.25 5.562 C5.648 5.224 5.046 4.886 4.426 4.537 C2.944 3.702 1.471 2.853 0 2 C0 1.34 0 0.68 0 0 Z " fill="#F5FBFB" transform="translate(405,346)"/>
<path d="M0 0 C0.66 0 1.32 0 2 0 C0.413 3.903 -2.134 6.335 -5.125 9.25 C-6.035 10.142 -6.945 11.034 -7.883 11.953 C-8.581 12.629 -9.28 13.304 -10 14 C-10.66 13.67 -11.32 13.34 -12 13 C-10.188 11.021 -8.375 9.041 -6.562 7.062 C-6.046 6.499 -5.53 5.935 -4.998 5.354 C-1.113 1.113 -1.113 1.113 0 0 Z " fill="#2BACA3" transform="translate(521,226)"/>
<path d="M0 0 C0 0.99 0 1.98 0 3 C-2.435 4.688 -4.806 6.172 -7.375 7.625 C-8.074 8.032 -8.772 8.44 -9.492 8.859 C-11.967 10.297 -14.439 11.72 -17 13 C-15.663 9.836 -14.494 8.352 -11.523 6.641 C-10.853 6.247 -10.183 5.854 -9.492 5.449 C-8.444 4.856 -8.444 4.856 -7.375 4.25 C-6.315 3.633 -6.315 3.633 -5.234 3.004 C-3.495 1.993 -1.748 0.995 0 0 Z " fill="#EEF8F8" transform="translate(373,613)"/>
<path d="M0 0 C0 0.99 0 1.98 0 3 C-2.082 4.938 -2.082 4.938 -4.812 7 C-7.714 9.211 -10.498 11.34 -13 14 C-13.99 13.67 -14.98 13.34 -16 13 C-10.86 8.379 -5.594 4.061 0 0 Z " fill="#F7FBFB" transform="translate(529,218)"/>
<path d="M0 0 C6.491 0.423 11.335 2.911 17 6 C16.34 6.66 15.68 7.32 15 8 C10.05 5.69 5.1 3.38 0 1 C0 0.67 0 0.34 0 0 Z " fill="#EBF6F6" transform="translate(517,398)"/>
<path d="M0 0 C5.754 3.06 11.19 6.571 16 11 C16 11.66 16 12.32 16 13 C12.236 11.319 9.032 8.958 5.75 6.5 C5.196 6.097 4.641 5.693 4.07 5.277 C2.674 4.235 1.332 3.123 0 2 C0 1.34 0 0.68 0 0 Z " fill="#F7FBFB" transform="translate(563,591)"/>
<path d="M0 0 C0.99 0.495 0.99 0.495 2 1 C2 1.66 2 2.32 2 3 C2.557 3.206 3.114 3.412 3.688 3.625 C7.016 5.604 8.743 7.84 11 11 C10.67 11.99 10.34 12.98 10 14 C9.529 13.457 9.059 12.915 8.574 12.355 C7.952 11.64 7.329 10.925 6.688 10.188 C6.073 9.48 5.458 8.772 4.824 8.043 C3.078 6.016 3.078 6.016 1.27 4.426 C0 3 0 3 0 0 Z " fill="#F6FBFB" transform="translate(623,223)"/>
<path d="M0 0 C0.99 0 1.98 0 3 0 C5.967 3.776 7.685 7.399 9 12 C8.34 12 7.68 12 7 12 C5.273 9.629 5.273 9.629 3.375 6.562 C2.743 5.553 2.112 4.544 1.461 3.504 C0 1 0 1 0 0 Z " fill="#F8FCFC" transform="translate(617,673)"/>
<path d="M0 0 C4.101 1.506 5.535 3.962 7.75 7.625 C8.364 8.628 8.977 9.631 9.609 10.664 C10.068 11.435 10.527 12.206 11 13 C10.01 13 9.02 13 8 13 C6.211 10.664 6.211 10.664 4.375 7.625 C3.764 6.627 3.153 5.63 2.523 4.602 C1.639 3.092 0.782 1.565 0 0 Z " fill="#F6FBFB" transform="translate(611,638)"/>
<path d="M0 0 C5.421 1.355 10.078 3.366 15 6 C12.2 7.113 11.099 7.035 8.203 6.004 C7.229 5.528 6.254 5.053 5.25 4.562 C4.265 4.089 3.28 3.616 2.266 3.129 C1.518 2.756 0.77 2.384 0 2 C0 1.34 0 0.68 0 0 Z " fill="#F8FCFC" transform="translate(504,391)"/>
<path d="M0 0 C1.685 4.077 0.169 6.831 -1.438 10.75 C-2.147 12.506 -2.147 12.506 -2.871 14.297 C-3.244 15.189 -3.616 16.081 -4 17 C-4.33 17 -4.66 17 -5 17 C-5.278 12.321 -4.548 9.324 -2.5 5.125 C-2.036 4.158 -1.572 3.191 -1.094 2.195 C-0.733 1.471 -0.372 0.746 0 0 Z " fill="#F6FBFB" transform="translate(277,215)"/>
<path d="M0 0 C3.769 0.552 5.346 2.04 7.812 4.875 C8.438 5.574 9.063 6.272 9.707 6.992 C10.134 7.655 10.56 8.317 11 9 C10.67 9.99 10.34 10.98 10 12 C8.894 10.752 7.79 9.501 6.688 8.25 C6.073 7.554 5.458 6.858 4.824 6.141 C3.127 4.149 1.545 2.111 0 0 Z " fill="#F6FBFB" transform="translate(594,647)"/>
<path d="M0 0 C4.29 0.66 8.58 1.32 13 2 C13.33 2.99 13.66 3.98 14 5 C9.38 4.01 4.76 3.02 0 2 C0 1.34 0 0.68 0 0 Z " fill="#F4FAFA" transform="translate(496,595)"/>
<path d="M0 0 C3.668 1.503 5.689 3.637 8.25 6.625 C8.956 7.442 9.663 8.26 10.391 9.102 C10.922 9.728 11.453 10.355 12 11 C11.01 11.495 11.01 11.495 10 12 C6.075 8.299 3.054 4.45 0 0 Z " fill="#F7FBFB" transform="translate(320,434)"/>
<path d="M0 0 C0.66 0.33 1.32 0.66 2 1 C0.925 2.299 -0.16 3.589 -1.25 4.875 C-1.853 5.594 -2.457 6.314 -3.078 7.055 C-4.971 8.971 -6.537 9.964 -9 11 C-7.441 7.173 -4.968 4.82 -2 2 C-1.34 1.34 -0.68 0.68 0 0 Z " fill="#ECF7F7" transform="translate(651,769)"/>
<path d="M0 0 C3.801 1.901 4.855 7.579 6.188 11.438 C6.456 12.283 6.724 13.129 7 14 C6.34 14 5.68 14 5 14 C4.157 12.422 3.326 10.837 2.5 9.25 C2.036 8.368 1.572 7.487 1.094 6.578 C0 4 0 4 0 0 Z " fill="#F9FCFC" transform="translate(301,241)"/>
<path d="M0 0 C4.972 1.492 9.418 3.605 14 6 C14 6.66 14 7.32 14 8 C9.634 6.909 6.476 5.855 3 3 C2.01 2.67 1.02 2.34 0 2 C0 1.34 0 0.68 0 0 Z " fill="#EAF6F6" transform="translate(435,522)"/>
<path d="M0 0 C0.99 0.33 1.98 0.66 3 1 C2.288 1.712 2.288 1.712 1.562 2.438 C-0.681 6.116 -0.737 9.762 -1 14 C-3.295 9.984 -2.988 7.53 -2 3 C-1.34 2.01 -0.68 1.02 0 0 Z " fill="#F1F9F9" transform="translate(694,333)"/>
<path d="M0 0 C-3.649 3.04 -7.744 4.965 -12 7 C-9.895 2.025 -5.609 -1.87 0 0 Z " fill="#EEF8F8" transform="translate(542,213)"/>
<path d="M0 0 C4.776 1.642 8.794 4.265 13 7 C12.01 7.33 11.02 7.66 10 8 C7.773 6.855 7.773 6.855 5.375 5.188 C4.578 4.645 3.782 4.102 2.961 3.543 C1 2 1 2 0 0 Z " fill="#F7FBFB" transform="translate(384,492)"/>
<path d="M0 0 C4.292 1.651 6.879 4.738 10 8 C9.67 8.66 9.34 9.32 9 10 C7.494 8.715 5.995 7.422 4.5 6.125 C3.247 5.046 3.247 5.046 1.969 3.945 C1.319 3.303 0.669 2.661 0 2 C0 1.34 0 0.68 0 0 Z " fill="#F5FAFB" transform="translate(617,452)"/>
<path d="M0 0 C2.429 3.644 2.162 5.712 2 10 C0.35 9.67 -1.3 9.34 -3 9 C-2.67 8.34 -2.34 7.68 -2 7 C-1.34 7 -0.68 7 0 7 C0 4.69 0 2.38 0 0 Z " fill="#FAFCFC" transform="translate(691,368)"/>
<path d="M0 0 C3.599 0.556 4.999 1.749 7.25 4.562 C8.031 5.523 8.031 5.523 8.828 6.504 C9.215 6.998 9.602 7.491 10 8 C6.401 7.444 5.001 6.251 2.75 3.438 C2.229 2.797 1.708 2.156 1.172 1.496 C0.785 1.002 0.398 0.509 0 0 Z " fill="#F9FCFC" transform="translate(348,307)"/>
<path d="M0 0 C1.705 0.969 3.409 1.94 5.109 2.918 C6.711 3.834 8.323 4.732 9.938 5.625 C10.618 6.079 11.299 6.533 12 7 C12 7.66 12 8.32 12 9 C7.51 7.503 3.522 5.166 0 2 C0 1.34 0 0.68 0 0 Z " fill="#EEF8F7" transform="translate(522,348)"/>
<path d="M0 0 C3.11 2.545 4.001 5.159 5 9 C5.125 11.875 5.125 11.875 5 14 C1.96 9.441 0 5.528 0 0 Z " fill="#F2FAF9" transform="translate(681,532)"/>
<path d="M0 0 C1.649 0.617 3.294 1.243 4.938 1.875 C6.312 2.397 6.312 2.397 7.715 2.93 C10 4 10 4 11 6 C6.645 5.494 3.558 4.616 0 2 C0 1.34 0 0.68 0 0 Z " fill="#F5FBFB" transform="translate(441,363)"/>
<path d="M0 0 C3.465 1.485 3.465 1.485 7 3 C7 3.99 7 4.98 7 6 C2.545 4.02 2.545 4.02 -2 2 C-1.34 1.34 -0.68 0.68 0 0 Z " fill="#EDF7F7" transform="translate(422,354)"/>
<path d="M0 0 C0.99 0.33 1.98 0.66 3 1 C0.69 3.31 -1.62 5.62 -4 8 C-4.33 7.01 -4.66 6.02 -5 5 C-3.35 3.35 -1.7 1.7 0 0 Z " fill="#1C7D94" transform="translate(328,648)"/>
<path d="M0 0 C2.539 0.385 3.728 0.701 5.484 2.629 C5.902 3.267 6.32 3.905 6.75 4.562 C7.178 5.203 7.606 5.844 8.047 6.504 C8.361 6.998 8.676 7.491 9 8 C8.67 8.66 8.34 9.32 8 10 C6.664 8.524 5.331 7.044 4 5.562 C3.258 4.739 2.515 3.915 1.75 3.066 C0 1 0 1 0 0 Z " fill="#F5FBFA" transform="translate(644,479)"/>
<path d="M0 0 C0.99 0 1.98 0 3 0 C6 5.75 6 5.75 6 8 C5.01 7.67 4.02 7.34 3 7 C1.312 3.438 1.312 3.438 0 0 Z " fill="#EFF8F8" transform="translate(620,652)"/>
<path d="M0 0 C2.312 1.375 2.312 1.375 3.125 3.5 C3.187 4.119 3.249 4.738 3.312 5.375 C2.653 5.375 1.992 5.375 1.312 5.375 C0.653 4.385 -0.008 3.395 -0.688 2.375 C-3.753 1.642 -3.753 1.642 -6.688 1.375 C-4.084 -0.361 -3.112 -0.724 0 0 Z " fill="#F9FDFD" transform="translate(776.6875,376.625)"/>
<path d="M0 0 C0.99 0.33 1.98 0.66 3 1 C5.059 1.223 7.122 1.407 9.188 1.562 C10.274 1.646 11.361 1.73 12.48 1.816 C13.728 1.907 13.728 1.907 15 2 C15 2.33 15 2.66 15 3 C10.05 3 5.1 3 0 3 C0 2.01 0 1.02 0 0 Z " fill="#F0F9F8" transform="translate(737,375)"/>
<path d="M0 0 C4.509 2.319 6.939 5.065 10 9 C6.043 7.326 3.155 4.869 0 2 C0 1.34 0 0.68 0 0 Z " fill="#2BACA3" transform="translate(346,307)"/>
<path d="M0 0 C3 1 3 1 5 4 C5.125 6.688 5.125 6.688 5 9 C0.571 3.857 0.571 3.857 0 0 Z " fill="#E9F6F5" transform="translate(307,255)"/>
<path d="M0 0 C-1.393 3.367 -2.979 4.986 -6 7 C-6.66 6.67 -7.32 6.34 -8 6 C-7.048 4.994 -6.088 3.995 -5.125 3 C-4.591 2.443 -4.058 1.886 -3.508 1.312 C-2 0 -2 0 0 0 Z " fill="#E0F1F1" transform="translate(334,642)"/>
<path d="M0 0 C2.31 1.98 4.62 3.96 7 6 C6.34 6.66 5.68 7.32 5 8 C2.5 5.688 2.5 5.688 0 3 C0 2.01 0 1.02 0 0 Z " fill="#E7F4F5" transform="translate(588,640)"/>
<path d="M0 0 C3.291 1.135 3.996 1.993 5.75 5.125 C6.163 6.074 6.575 7.022 7 8 C3.709 6.865 3.004 6.007 1.25 2.875 C0.837 1.926 0.425 0.978 0 0 Z " fill="#EBF6F6" transform="translate(301,407)"/>
<path d="M0 0 C3.775 1.091 6.47 1.908 9 5 C5.656 4.443 2.967 3.648 0 2 C0 1.34 0 0.68 0 0 Z " fill="#F7FCFC" transform="translate(479,380)"/>
<path d="M0 0 C2.964 2.808 5.445 5.183 7 9 C3.646 7.612 1.887 6.114 0 3 C0 2.01 0 1.02 0 0 Z " fill="#F5FBFA" transform="translate(505,329)"/>
<path d="M0 0 C3.375 0.547 5.082 1.055 8 3 C8 3.66 8 4.32 8 5 C2.25 3.375 2.25 3.375 0 0 Z " fill="#E9F6F5" transform="translate(396,500)"/>
<path d="M0 0 C1.98 0.99 3.96 1.98 6 3 C6 3.99 6 4.98 6 6 C4.02 5.01 2.04 4.02 0 3 C0 2.01 0 1.02 0 0 Z " fill="#EBF6F6" transform="translate(573,423)"/>
<path d="M0 0 C3.465 1.485 3.465 1.485 7 3 C7 3.99 7 4.98 7 6 C4.69 4.68 2.38 3.36 0 2 C0 1.34 0 0.68 0 0 Z " fill="#FAFDFD" transform="translate(565,419)"/>
<path d="M0 0 C3.465 1.485 3.465 1.485 7 3 C7 3.99 7 4.98 7 6 C4.69 4.68 2.38 3.36 0 2 C0 1.34 0 0.68 0 0 Z " fill="#FCFDFD" transform="translate(549,411)"/>
<path d="M0 0 C1.98 0.66 3.96 1.32 6 2 C6 2.99 6 3.98 6 5 C3.69 4.01 1.38 3.02 -1 2 C-0.67 1.34 -0.34 0.68 0 0 Z " fill="#E7F5F4" transform="translate(488,384)"/>
</svg>